<?xml version="1.0" encoding="UTF-8" standalone="no"?>
<svg
   xmlns:dc="http://purl.org/dc/elements/1.1/"
   xmlns:cc="http://creativecommons.org/ns#"
   xmlns:rdf="http://www.w3.org/1999/02/22-rdf-syntax-ns#"
   xmlns:svg="http://www.w3.org/2000/svg"
   xmlns="http://www.w3.org/2000/svg"
   id="svg8"
   version="1.1"
   viewBox="0 0 1000 1000"
   height="1000"
   width="1000">
  <defs
     id="defs2" />
  <metadata
     id="metadata5">
    <rdf:RDF>
      <cc:Work
         rdf:about="">
        <dc:format>image/svg+xml</dc:format>
        <dc:type
           rdf:resource="http://purl.org/dc/dcmitype/StillImage" />
        <dc:title></dc:title>
      </cc:Work>
    </rdf:RDF>
  </metadata>
  <g
     transform="translate(0,-767.833)"
     id="layer1">
    <g
       transform="translate(-3.3408509e-7,1.8288014e-5)"
       id="g1029">
      <path
         style="font-style:normal;font-variant:normal;font-weight:normal;font-stretch:normal;font-size:192px;line-height:1.25;font-family:'Bubblegum Sans';-inkscape-font-specification:'Bubblegum Sans';letter-spacing:0px;word-spacing:0px;fill:#1a1a1a;fill-opacity:1;stroke:none;stroke-width:1.09990525"
         d="m 379.99665,943.3443 c -0.28963,9.3e-4 -0.56067,0.0145 -0.76628,0.0254 -11.12817,0.58359 -21.26129,7.81749 -21.20477,8.95417 0.72483,14.57878 0.51081,42.43855 1.23565,57.01723 -0.0115,-0.2268 -6.80529,-0.011 -14.77975,0.5982 -12.24714,0.9313 -21.8166,2.034 -26.48241,2.4709 l -0.32095,-4.5069 c -1.57853,-22.19834 -2.32068,-49.82168 -2.22058,-51.52796 -0.16021,-2.27594 -14.48345,-6.36178 -27.67193,-4.89811 -2.26066,0.25089 -4.09123,0.6875 -4.29671,0.71091 -0.18605,0.24841 -0.14722,0.698 -0.10832,1.14802 0.52297,6.05188 4.28996,16.12223 7.12911,20.78419 l 0.39516,4.72786 c 0.59006,7.05235 1.7272,20.63354 2.87251,36.71149 -3.38118,0.3729 -9.70148,1.5491 -9.68066,1.783 0.65611,7.3749 8.31174,19.3072 11.26736,21.8955 l 2.23059,26.5611 c 1.87117,22.2801 3.57712,40.2738 4.61367,41.2923 0.82708,0.8127 5.39599,0.5566 7.09501,0.3796 9.4509,-0.9842 16.19895,-5.6727 16.07157,-7.4793 -0.61671,-3.4702 -3.15192,-22.7292 -4.75206,-45.1667 -0.43328,-6.0754 -0.86898,-12.1827 -1.12133,-18.502 1.20865,-0.5909 14.05526,-1.9745 25.74423,-2.8666 6.32828,-0.4829 11.99918,-0.8733 15.38555,-0.8696 3.46667,60.9394 5.78813,68.9554 10.39477,73.8721 0,0 0.9706,0.395 2.30082,0.3151 8.32472,-0.4997 18.49463,-5.3247 22.17364,-9.0968 0.18323,-0.2347 0.55115,-0.7053 0.53558,-1.1573 -9.54339,-10.4248 -11.78639,-36.5549 -13.53606,-80.8545 -1.50851,-38.1932 -0.56167,-71.52978 -0.56167,-71.52978 -0.0261,-0.67854 -1.07289,-0.79422 -1.94174,-0.79144 z m 100.80243,0.6672 c -9.53529,-0.0582 -25.60973,0.099 -41.92011,0.79602 -15.5785,0.66576 -29.13115,1.75908 -29.93463,2.70098 0.0882,3.34505 6.67627,20.414 9.9635,23.89928 0.21316,0.44725 0.50038,4.28414 0.6399,10.61756 0.17521,7.9538 0.1658,16.47693 0.341,24.43066 -6.38107,0.412 -10.56528,0.7978 -10.55926,1.0216 0.20003,7.4331 6.10399,19.7262 10.71774,24.0925 0.06,11.5694 0.13059,23.2788 0.36508,33.7116 0.25917,11.5307 1.0869,31.2019 1.86351,31.8549 0.58315,0.8717 14.97453,1.3769 30.0931,1.2102 16.54958,-0.1825 27.59574,-0.8017 33.50118,-1.4471 2.78253,-0.3033 4.28758,-0.6023 4.47726,-0.8213 4.44063,-4.9063 9.81835,-16.6306 9.91135,-24.0673 0.003,-0.2261 -0.19306,-0.2269 -0.38715,-0.23 -0.15401,0 -5.94038,0.8921 -13.84299,1.2378 -2.05552,0.091 -4.25615,0.1438 -6.53735,0.1334 -5.50526,-0.025 -30.73608,-0.4617 -33.3708,-3.4579 -0.58576,-0.6661 -1.20532,-20.798 -1.32993,-31.878 -0.0458,-4.0718 -0.0765,-6.7879 0.11834,-7.017 3.11046,-2.4431 28.63994,-3.5822 31.98871,-3.5707 0.76282,0.221 6.98999,-13.082 7.03884,-21.9023 0.002,-0.4485 -6.77901,-0.7423 -16.36044,-0.727 -6.84309,0.012 -14.71337,0.063 -22.75336,0.4073 0,0 -0.24632,-4.0659 -0.30691,-9.49489 -0.10858,-9.72872 -0.0641,-23.75297 0.93878,-24.90006 1.69909,-1.94352 25.61968,-3.6 37.47896,-3.51542 1.44519,0.0103 2.75212,0.0716 3.79123,0.15875 1.14621,0.096 1.96701,0.22324 2.28475,0.34511 1.18329,0.23262 8.83786,-11.87964 8.95452,-22.50279 0.006,-0.52503 -4.54987,-0.85392 -11.08683,-1.00079 -1.88396,-0.0429 -3.92716,-0.072 -6.07799,-0.0852 z m 55.15931,2.01307 c -10.38378,0.0337 -18.14414,0.3644 -18.77358,1.033 -0.0619,3.35093 5.72432,20.76642 8.84619,24.44225 0.19231,0.45876 0.30926,4.30567 0.16849,10.63594 -0.17667,7.94498 -0.56552,16.46276 -0.74219,24.40784 -6.38141,0.04 -10.56927,0.1739 -10.57331,0.3979 -0.13391,7.436 5.20472,20.0509 9.62249,24.6815 -0.45198,11.5486 -0.90159,23.2483 -1.12933,33.6725 -0.25184,11.526 -0.29507,31.2103 0.45533,31.9079 0.54732,0.9058 14.95496,2.2442 30.1252,2.9287 24.45196,1.1033 37.52234,0.5204 38.18104,-0.1702 4.65179,-4.6646 10.50183,-16.0856 10.89024,-23.5128 0.0118,-0.2257 -0.18288,-0.2397 -0.37711,-0.253 -0.19425,-0.014 -9.40028,0.9316 -20.4646,0.2806 -5.52704,-0.3252 -30.74646,-2.1472 -33.26849,-5.303 -0.55839,-0.6987 -0.31555,-20.8318 0.0341,-31.9011 0.12848,-4.0674 0.21277,-6.7807 0.41724,-6.9985 3.18789,-2.2474 28.77905,-1.9922 32.10104,-1.8015 0.75634,0.2631 7.51272,-12.6878 7.91945,-21.4951 0.0207,-0.4484 -6.73418,-1.1002 -16.29225,-1.6057 -6.82089,-0.3609 -14.68399,-0.7415 -22.71124,-0.849 0,0 -0.0714,-4.0761 0.10035,-9.49944 0.30772,-9.71844 0.95102,-23.71684 1.99791,-24.80575 1.75873,-1.82931 25.6685,-2.18317 37.4589,-1.47472 3.0261,0.18182 5.43365,0.55744 6.02785,0.82133 1.1728,0.29531 9.27861,-11.40419 9.81907,-22.01043 0.0344,-0.67637 -7.47185,-1.41436 -17.03243,-1.97857 -9.41369,-0.55554 -25.53687,-1.26451 -41.70949,-1.48623 -3.87744,-0.0531 -7.62957,-0.0756 -11.09083,-0.0644 z m 95.90393,3.90653 c -4.60524,0.039 -7.59011,0.27238 -7.92747,0.6833 -0.21584,0.21042 -0.22896,0.43674 -0.25475,0.88805 -0.20513,3.59105 2.8173,18.35816 6.30467,24.05343 0,0 -6.96288,96.92612 -8.93045,130.09322 0,0 2.41961,1.547 6.84026,1.9072 4.78149,0.3897 16.27447,-0.2259 19.79259,-3.7432 -0.7827,-5.4988 0.15334,-27.9064 1.6549,-52.9359 5.90565,-0.5962 17.99579,-2.4372 18.9802,-2.9908 0.36691,2.9456 4.3341,18.394 8.83015,34.029 4.49791,15.6417 9.5865,31.6972 12.51304,35.849 0,0 2.65123,0.7454 4.7641,0.9801 10.16391,1.1286 21.81615,-2.9488 21.97907,-4.7395 0.0204,-0.2249 -0.15044,-0.4716 -0.15044,-0.4716 -4.78395,-6.8938 -11.24272,-24.4556 -16.50085,-40.5008 -5.27344,-16.0919 -9.39856,-30.8539 -9.27145,-32.4232 18.89492,-8.1895 32.99604,-21.9705 34.76693,-41.53612 3.21279,-35.49662 -35.53783,-45.2247 -61.61843,-47.63065 -11.92158,-1.09976 -24.09665,-1.57648 -31.77207,-1.51153 z m -388.19931,6.34291 c -1.86238,0.0349 -3.62524,0.14152 -5.01485,0.34281 -34.17899,4.95085 -53.37699,23.33835 -62.94235,44.12218 -9.6044,20.8685 -9.82441,44.5363 -7.09701,61.7358 5.96354,37.6073 28.24423,62.8332 65.80483,56.7436 27.49409,-4.4575 45.68354,-28.3666 45.46661,-30.654 -0.12857,-1.3557 -4.98721,-11.8865 -11.67657,-18.0695 -0.64725,-0.5982 -2.56388,-2.1646 -3.14532,-2.0866 -9.56105,13.8095 -19.96198,22.6001 -32.89138,24.6861 -24.75909,3.9945 -35.33164,-18.63 -37.89218,-36.6174 -5.95346,-41.822 13.01085,-66.27827 30.0951,-68.96918 2.83376,-0.44635 7.40697,-0.0103 9.78698,2.82751 2.6287,3.25103 3.64091,10.40307 3.99582,13.53947 l 0.15045,1.3458 c 5.33814,-0.7948 17.74074,-7.57741 18.59706,-8.78852 0.33154,-0.46889 -0.0477,-28.71033 -1.08723,-39.01003 -0.0703,-0.69554 -6.56283,-1.25259 -12.14996,-1.14804 z m 551.10161,10.0263 c -36.93159,-0.22542 -54.13254,19.42939 -55.66279,35.59819 -1.89135,19.9839 12.17488,30.8868 26.18552,40.2892 14.056,9.4327 28.12531,17.4017 26.59875,31.1049 -1.64921,14.8041 -17.41294,25.0274 -33.83417,22.8087 -1.35483,-0.183 -5.59883,-0.9816 -7.13914,-3.2324 -4.2823,-6.2572 -1.66092,-32.7752 -1.66092,-32.7752 -8.63123,-1.1263 -18.93478,3.2747 -19.73442,5.4595 -0.60316,2.2076 -1.99748,12.9451 -3.02696,23.9729 -1.15465,12.3686 -1.96414,25.2391 -0.76627,26.9775 0,0 4.83771,2.3732 20.99215,4.5024 38.08595,5.0199 68.32408,-15.2035 71.83267,-44.8261 2.71045,-22.8839 -10.53057,-35.2908 -24.32,-44.6145 -13.74919,-9.2964 -27.9578,-15.4539 -26.8515,-26.2205 1.6233,-15.79833 26.9238,-15.86818 40.11476,-13.90295 1.69354,0.25231 3.83683,1.03377 5.53038,1.28607 3.84541,-3.52116 7.03126,-16.9608 7.52428,-21.21671 0.0779,-0.67262 -0.0442,-1.3758 -0.0442,-1.3758 -0.35247,-0.51492 -6.47976,-2.12151 -8.69173,-2.4525 -6.09319,-0.91175 -11.77052,-1.35049 -17.04647,-1.3827 z m -133.03387,9.22105 c 2.28985,-0.028 5.0641,0.0405 8.07993,0.32901 16.5147,1.5798 30.06223,8.7443 29.02192,21.35704 -0.93958,11.39149 -13.38954,28.08669 -47.99008,28.62479 1.54548,-22.7932 3.34771,-43.46354 4.60162,-49.94963 0,0 2.4702,-0.31448 6.28661,-0.36121 z"
         id="text891" />
      <path
         style="font-style:normal;font-variant:normal;font-weight:normal;font-stretch:normal;font-size:192px;line-height:1.25;font-family:'Bubblegum Sans';-inkscape-font-specification:'Bubblegum Sans';letter-spacing:0px;word-spacing:0px;fill:#1a1a1a;fill-opacity:1;stroke:none;stroke-width:1.02704072"
         d="m 675.65975,1257.7484 c -0.82055,0.012 -1.63685,0.048 -1.63685,0.048 -18.21032,3.037 -34.97154,10.7378 -34.97154,10.7378 -0.64093,0.9083 -1.19922,7.0101 -0.57369,10.7056 0.13173,0.7783 0.1969,1.1684 0.48944,1.7192 4.73947,-0.2041 11.52616,1.8421 12.0256,4.7581 5.72907,33.4481 1.09688,74.6946 -0.13438,81.092 -0.89532,4.3532 -2.57999,0.4317 -2.57764,0.4313 -2.18673,-5.3358 -8.75695,-22.2421 -15.17092,-38.8329 -6.29973,-16.2954 -12.12484,-31.466 -12.55718,-31.7821 -0.89608,-0.6554 -7.85726,0.058 -7.85726,0.058 -12.4087,1.96 -18.84579,5.6387 -18.84579,5.6387 -1.41487,2.0533 -3.90704,19.2145 -6.26054,35.7018 -2.36028,16.5347 -4.6257,32.5383 -4.6257,32.5383 -0.28593,1.0269 -0.23959,1.4211 -0.84851,1.4944 -0.60981,0.074 -1.17748,-1.2497 -1.17748,-1.2497 -12.63801,-22.5476 -23.05131,-82.636 -24.24378,-90.4598 -0.0389,-0.382 -4.37294,-0.1625 -4.37294,-0.1625 -11.76024,1.1192 -17.68117,5.7063 -17.64024,6.3328 0.98176,15.0216 7.56777,45.0818 16.11772,73.4795 8.44162,28.0378 18.31493,52.7611 22.53874,55.8694 0.47204,0.3474 1.99574,0.3829 3.06909,0.2668 11.45875,-1.2397 25.10494,-7.3711 24.88768,-8.9746 -0.23724,-1.7509 0.72907,-14.3202 2.24865,-28.8574 1.50357,-14.384 3.60141,-31.2413 5.9115,-40.8069 0,0 0.21479,-1.227 0.80238,-1.3158 0.19597,-0.03 0.64683,0.2986 1.15742,1.019 1.9775,3.3858 8.36717,20.6739 14.53705,37.4729 6.24206,16.9956 12.25667,33.5105 13.48192,36.4138 0.0944,0.5847 1.72376,0.3233 2.94271,0.1264 7.62695,-1.232 22.31055,-6.0882 25.49949,-10.2644 1.61196,-2.2335 5.70101,-27.3033 8.52323,-57.2996 2.79575,-29.7148 4.45847,-64.8272 0.92274,-85.8021 -0.0164,-0.098 -0.84037,-0.1083 -1.66092,-0.096 z m -339.5553,6.9605 c -0.55001,-0.011 -0.9029,0.023 -1.00899,0.1104 -0.22664,0.1482 -0.27216,0.3388 -0.36508,0.7221 -0.75371,3.1094 -0.27257,16.1207 2.17845,21.5979 0,0 -4.77664,17.5166 -10.58936,39.1681 -5.72509,21.3249 -12.75144,47.7645 -16.60917,64.0335 l -1.36404,5.755 c 0,0 2.42012,1.8019 7.21536,2.9026 5.25778,1.2068 16.26018,2.6322 21.47358,-0.1644 -0.16333,-7.9014 5.65432,-42.5241 10.80399,-67.0506 2.10586,-10.0296 4.00613,-18.1087 5.41804,-22.0372 0,0 0.46936,-1.3122 0.84651,-1.2337 0.18877,0.039 0.52648,0.3112 0.78432,0.969 0.88014,2.2448 4.84543,18.7351 9.87724,38.873 4.17644,16.7146 12.13781,47.6824 15.21104,61.8451 0,0 2.65469,1.2209 7.80711,1.9679 15.72084,2.2791 25.86826,-0.4705 25.9749,-1.4143 2.22879,-19.7242 5.49608,-60.756 7.72488,-80.4802 2.02176,-17.5867 4.1484,-32.7078 5.75704,-38.8331 0.0664,-0.5876 3.61791,-9.5185 4.1523,-14.4186 0.0651,-0.5973 -1.85035,-1.1748 -6.83024,-1.7712 -4.32136,-0.5175 -16.47099,0.4904 -20.71532,3.5605 0.31663,8.403 -4.61114,53.1536 -7.44805,72.6451 l -0.79436,5.4622 c 0,0 -0.39899,1.3399 -1.00096,1.2517 -0.2003,-0.03 -0.37272,-0.256 -0.65794,-1.0953 -0.83335,-2.7929 -6.0693,-20.6902 -11.62242,-43.3142 -5.14993,-20.9814 -9.37576,-41.6875 -9.37576,-41.6875 -0.70033,-0.8869 -11.18692,-3.2606 -13.29335,-3.707 -6.1868,-1.3109 -19.69963,-3.5786 -23.54972,-3.6568 z m 115.24921,18.7115 c -2.92441,0.012 -4.78216,0.1128 -5.069,0.3791 -0.25762,3.0652 3.92184,18.2179 6.75599,21.6842 0.15673,0.404 0.10939,3.7657 -0.27481,9.2714 -0.47359,6.7866 -1.20338,14.4443 -1.67696,21.2309 -6.23352,-0.2392 -10.32926,-0.415 -10.34664,-0.2126 -0.56224,6.5511 4.01008,17.6977 8.41492,22.0212 -0.90305,9.943 -1.84987,20.3055 -2.48938,29.2786 -0.71544,10.0388 -1.51042,27.1654 -0.66998,27.8244 0.63032,0.8766 16.85352,2.7605 34.19926,3.1534 27.66029,0.6263 42.83956,-1.8333 43.29618,-2.2768 4.13372,-3.8412 8.50442,-11.8118 9.58638,-18.1898 0.20512,-1.1983 0.29275,-2.3329 0.2387,-3.366 -0.0103,-0.1916 -0.21367,-0.1858 -0.42124,-0.1745 h -0.0181 c -0.21194,0.011 -10.12314,1.9321 -22.23383,2.1704 -3.31972,0.066 -11.23709,0.094 -19.45962,-0.4272 -8.00103,-0.5079 -15.52272,-1.5113 -16.97023,-2.9507 -0.62524,-0.6218 -0.44984,-18.1577 -0.12638,-27.8244 0.11869,-3.5474 0.19925,-5.9118 0.4072,-6.1021 1.51579,-0.9199 8.92208,-1.4504 16.2441,-1.8755 7.01368,-0.4073 15.04719,-0.7729 16.31229,-0.7924 0.89238,0.2049 6.71549,-11.5793 6.51529,-19.265 -0.0105,-0.4033 -6.62479,-0.3851 -15.95725,-0.3731 -7.32212,0.01 -13.68142,-0.09 -22.17564,-0.1545 0,0 -0.0766,-3.5545 0.0802,-8.2845 0.28084,-8.4692 0.87844,-20.6914 1.83143,-21.6421 0.76373,-0.7619 6.67906,-1.3149 13.70457,-1.7913 6.54054,-0.4435 15.68657,-0.9233 20.54282,-1.0411 2.76594,-0.067 4.98685,0.059 5.54642,0.2367 1.21607,0.1748 7.44498,-10.7513 7.01477,-20.0172 -0.0275,-0.5927 -6.62947,-0.4563 -15.01245,-0.2809 -10.04362,0.2102 -20.60875,0.3698 -36.58632,0.1264 -8.48815,-0.1293 -16.32876,-0.3569 -21.20277,-0.337 z"
         id="text895" />
      <path
         style="font-style:normal;font-variant:normal;font-weight:normal;font-stretch:normal;font-size:192px;line-height:1.25;font-family:'Bubblegum Sans';-inkscape-font-specification:'Bubblegum Sans';letter-spacing:0px;word-spacing:0px;fill:#1a1a1a;fill-opacity:1;stroke:none;stroke-width:1.02704072"
         d="m 276.74635,1439.3941 c -2.58135,-0.057 -4.12377,0.076 -4.46322,0.323 -0.63707,0.4626 -4.26703,6.4144 -4.95065,9.8792 -0.1145,0.5804 -0.22914,1.1595 -0.12236,1.5827 4.20455,0.8334 8.3517,3.0261 10.73578,6.6677 1.19698,2.3247 5.04606,14.7999 9.82107,28.5345 4.87281,14.0159 10.37454,28.4441 14.39864,36.1551 l -0.36709,2.5375 c -2.04293,14.0617 -6.38001,39.4888 -8.42294,53.5506 0,0 1.65774,1.8492 7.54233,2.6638 16.18389,2.2404 21.36345,-0.3037 21.56385,-1.9979 -0.56534,-4.277 1.18316,-24.0373 2.90058,-38.3655 0.86679,-7.2316 1.77207,-13.1011 2.20253,-15.0245 3.32608,-7.9732 14.51222,-22.5609 25.62987,-36.3256 10.90984,-13.5073 23.05488,-27.8044 28.46227,-33.3367 0.34388,-2.141 -10.19319,-8.8353 -22.0934,-9.9716 -1.79821,-0.1716 -11.08003,12.6035 -20.44655,25.7101 -9.261,12.9592 -18.9743,26.761 -19.73442,28.4663 -0.12951,-0.016 -0.25965,-0.033 -0.38916,-0.05 -3.91305,-7.9587 -8.4707,-21.7395 -12.17605,-34.3216 -3.64482,-12.3766 -6.27164,-22.9368 -6.66372,-23.3993 -0.15063,-0.2239 -1.17774,-0.7866 -2.62978,-1.025 -9.30842,-1.5282 -16.49533,-2.1569 -20.79758,-2.2527 z m 379.37319,1.0371 c -6.13584,0.05 -12.10656,0.5179 -17.40954,1.1072 -17.90532,1.99 -36.3001,4.9386 -36.94739,5.9537 -0.17231,0.214 -0.15455,0.4096 -0.11835,0.8024 0.29161,3.1643 5.07013,15.3533 9.20124,19.7324 0,0 6.89742,84.531 9.65058,113.3897 0,0 2.76304,0.93 7.45205,0.4674 5.13086,-0.5062 16.93468,-3.1007 20.04134,-6.8343 -1.73307,-4.5902 -4.42364,-23.9068 -6.96663,-45.6692 5.91415,-1.6383 17.40633,-5.4848 18.37641,-6.2244 0.90294,2.5157 7.47353,14.7831 14.93422,27.2307 7.45489,12.4379 15.69036,24.869 19.57394,27.7782 0,0 2.8752,0.031 5.09509,-0.2568 10.71515,-1.3869 21.71672,-7.6686 21.50166,-9.2394 -0.0267,-0.1953 -0.25275,-0.363 -0.25275,-0.363 -6.40538,-4.7277 -16.43131,-17.9305 -24.89772,-30.4461 -8.44625,-12.4859 -15.24946,-24.1458 -15.42165,-25.5236 17.05486,-11.0922 27.69532,-26.0947 25.37713,-43.0936 -3.25313,-23.8546 -27.2759,-28.9906 -49.18963,-28.8113 z m -101.24576,4.2606 c -10.54132,0.691 -21.95976,7.225 -21.90084,8.3869 0.11984,2.3626 2.55797,12.6997 2.36701,12.7096 -1.86151,0.097 -13.49595,2.8425 -14.56312,3.8393 -0.81377,1.0972 -8.75706,25.9428 -16.31229,50.0964 -9.48026,0.6735 -16.40412,0.9773 -16.40056,1.1775 0.12016,6.7475 6.68226,17.5818 9.79701,20.1035 -6.01669,17.3674 -12.32254,37.2005 -13.41773,44.281 -0.12388,0.8001 -0.18553,1.4518 -0.17853,1.9398 9.3e-4,0.064 0.0733,0.1379 0.21063,0.2206 1.57419,0.9493 11.53311,2.9426 21.85471,2.6358 1.86705,-0.055 4.97519,-0.154 4.96871,-0.353 0.82523,-12.8374 5.02456,-29.5653 10.41684,-49.8977 1.12286,-0.4192 12.85024,-1.3352 22.98204,-1.8956 4.18668,-0.2316 8.21149,-0.4708 11.00859,-0.4473 1.71336,6.1461 6.33082,19.6729 11.11491,32.0268 4.73635,12.2306 9.48912,22.9102 10.93839,22.8055 11.80082,-0.853 25.19518,-10.2806 25.04013,-12.0718 0,0 -1.41241,-2.0579 -1.63284,-2.2366 -11.52823,-15.7249 -23.21239,-48.6745 -31.95661,-78.3038 -8.69072,-29.448 -14.33645,-55.0169 -14.33645,-55.0169 z m -154.81435,8.3587 c -4.96511,0 -8.25452,0.1276 -8.64559,0.4915 -0.19453,3.0225 4.46092,18.1961 7.37985,21.5819 0.16727,0.4031 0.17199,3.7648 -0.1364,9.2775 -0.38238,6.835 -1.00173,14.4219 -1.3841,21.2569 -6.26072,-0.1531 -10.37366,-0.2363 -10.38676,-0.036 -0.42755,6.5354 4.36401,17.6378 8.75994,21.8728 -0.76282,9.9879 -1.55199,20.3045 -2.06411,29.3188 -0.5708,10.0472 -1.13427,27.1936 -0.32496,27.8364 0.60274,0.8508 16.20772,2.4894 32.74294,2.9748 26.44409,0.7764 40.77521,-0.9296 41.29826,-1.4283 4.80477,-4.3808 10.25128,-14.6281 10.18817,-21.1686 -0.002,-0.1972 -0.2067,-0.1966 -0.41122,-0.1945 -0.20453,0 -9.81397,1.4973 -21.50165,1.4221 -3.10978,-0.019 -10.93761,-0.184 -18.78562,-0.8023 -7.71979,-0.6082 -15.01104,-1.6345 -16.40458,-3.0712 -0.59994,-0.6185 -0.38633,-18.1668 -0.0461,-27.8324 0.1249,-3.5484 0.20714,-5.9159 0.41323,-6.106 1.51465,-0.9248 8.83363,-1.4282 16.1137,-1.7612 7.16391,-0.3277 14.73791,-0.5044 16.19595,-0.4914 0.83839,0.2157 6.99634,-11.3994 7.02279,-19.0906 10e-4,-0.3998 -6.65645,-0.5986 -16.04751,-0.7523 -6.65268,-0.1087 -14.47307,-0.2963 -22.30002,-0.3711 0,0 -0.0734,-3.5551 0.0923,-8.2864 0.29687,-8.4742 0.9205,-20.6957 1.90363,-21.6461 1.426,-1.3785 24.42273,-2.3365 35.32258,-2.2848 2.8595,0.013 5.15069,0.2139 5.72294,0.4112 1.19415,0.206 8.1349,-10.4753 8.0719,-19.7484 -0.004,-0.5931 -6.95891,-0.7347 -15.77069,-0.7924 -8.063,-0.053 -24.12259,-0.1628 -38.32146,-0.3691 -7.09233,-0.1031 -13.73224,-0.2152 -18.69735,-0.2106 z m 257.07311,7.751 c 12.00041,0.1273 21.56008,3.8817 22.68918,12.7839 1.22282,9.641 -7.39432,27.2185 -41.33639,34.0488 -2.12734,-19.7852 -3.68195,-37.913 -3.52644,-43.6613 0,0 5.84403,-1.8161 13.54811,-2.698 2.95573,-0.3383 5.85621,-0.5028 8.62554,-0.4734 z m -117.6102,22.1355 c 0.38629,-0.02 0.41924,0.5697 0.41924,0.5697 0.51694,2.1998 4.57835,16.8726 9.76692,34.0007 -0.22097,-0.3822 -10.09143,0.2191 -22.14156,0.7623 1.53678,-6.4453 9.36102,-30.5707 11.03266,-34.4921 0.35497,-0.6112 0.72956,-0.8301 0.92274,-0.8406 z"
         id="text899" />
      <path
         style="font-style:normal;font-variant:normal;font-weight:normal;font-stretch:normal;font-size:121.18988037px;line-height:1.25;font-family:'Bubblegum Sans';-inkscape-font-specification:'Bubblegum Sans';letter-spacing:0px;word-spacing:0px;fill:#1a1a1a;fill-opacity:1;stroke:none;stroke-width:0.65030539"
         d="m 563.48454,1134.5057 c -6.27391,0 -11.86678,2.0571 -16.36765,6.2863 -5.04641,4.572 -8.72908,11.5446 -11.18409,19.7744 -1.90945,-0.2286 -3.81742,-0.5724 -5.72687,-0.801 -5.18282,-0.8 -10.5027,-1.7128 -15.68551,-2.3984 1.5003,-4.8009 3.41026,-8.8032 5.72888,-11.5464 1.90946,-1.3716 2.04446,-4.1144 2.04446,-5.0286 -0.1364,-2.5147 -1.09038,-4.3433 -2.86344,-5.1434 -0.81834,-0.3428 -2.456,-0.9137 -4.63824,0.2295 -6.54672,2.7432 -11.45677,9.4864 -14.86652,20.1164 -2.45501,-0.2286 -4.77255,-0.2294 -7.09117,-0.2294 -12.82064,0.1143 -21.41381,3.202 -26.18745,9.1457 -3.81891,2.9718 -7.36513,6.6281 -5.59205,10.6287 0.95473,2.0574 2.86494,3.2015 5.18355,3.2015 0.54557,0 1.09041,-8e-4 1.63598,-0.2294 0.95472,-0.2286 1.63616,-0.6845 2.31811,-1.3704 0.95473,0.4573 2.18326,0.5703 3.41076,0.2274 2.86418,-0.8002 4.36506,-3.428 3.27393,-6.0569 -0.81833,-2.0575 -2.72854,-4.1166 -5.18356,-5.7168 4.22808,-4.0005 11.04789,-5.9426 21.14073,-6.0568 1.90946,0 3.95468,0.1131 6.00053,0.2273 -0.54555,2.2862 -1.0904,4.6876 -1.63596,7.3167 -1.3639,7.4296 -2.04578,15.4307 -2.45495,23.2032 -0.95473,12.5733 -2.18334,36.8044 8.31865,46.1772 2.86418,2.6289 6.54797,4.0023 10.91245,4.0023 7.22865,0 12.13891,-6.6307 15.54866,-14.289 v -0.1146 c 0.54556,-1.2574 1.08997,-2.5133 1.49913,-3.6564 0.27279,6.2868 0.8183,12.0004 1.22748,16.4582 0.13639,0.9144 1.0906,1.7145 2.31811,1.7145 2.5914,0 6.27482,-0.6852 8.32066,-2.7427 0.68195,-0.5715 1.09152,-1.1433 1.3643,-1.8292 0.27278,-0.3428 0.40849,-0.8003 0.40849,-1.2576 v -1.5997 -0.2274 c 0.54556,-7.0868 7.09275,-23.6606 15.00335,-34.2907 0,0 0.13684,-0.1151 0.13684,-0.2295 l 0.13481,-0.1147 c 0.68195,-0.8 1.22768,-1.6005 1.90964,-2.4006 1.90945,-2.1718 4.22902,-3.886 5.86571,-4.0003 0.13638,0.3428 0.40804,1.144 0.27165,3.2015 0,1.9431 -0.40736,4.1141 -0.68013,6.1715 -0.27278,1.2573 -0.41095,2.5144 -0.54734,3.4289 -0.95473,10.8586 -0.68192,25.2609 6.81953,32.0048 2.72779,2.5147 6.27385,3.8857 10.50193,3.8857 7.22865,-0.1143 12.27531,-6.7439 15.54867,-14.5163 0.0712,-0.1543 0.12251,-0.2993 0.19116,-0.4528 1.00586,2.8163 2.5181,5.3869 4.5316,7.5399 4.36446,4.8007 10.63924,7.3165 17.59512,7.3165 9.68368,0 16.36708,-4.574 21.14072,-10.4034 0,-0.1142 0.13483,-0.1126 0.13483,-0.1126 0,-0.1144 4.3e-4,-0.1151 0.13683,-0.2295 6.68309,-8.4583 9.13783,-19.4316 9.81978,-22.7465 0.13641,-1.0287 -0.68212,-2.0569 -1.90962,-2.1711 -1.36389,-0.1143 -2.45338,0.5709 -2.58976,1.5997 -0.68195,3.4291 -2.72893,12.117 -7.77535,19.4323 -0.40917,0.6859 -0.95513,1.2576 -1.36431,1.8293 -3.00057,3.5432 -8.59215,7.5438 -14.72968,7.5438 h -0.13683 c -7.22866,0 -11.86513,-6.7456 -12.1379,-17.3758 5.31919,-1.2573 10.77438,-3.5434 14.72968,-6.4009 6.13754,-4.2293 9.4113,-9.4855 9.4113,-15.2006 v -0.1146 -0.3442 c 0,-1.4859 -0.4087,-2.7426 -1.09065,-3.8856 -0.54555,-1.0288 -1.36382,-2.0573 -2.45494,-2.8574 -2.31862,-1.9432 -5.72878,-3.0868 -9.41129,-3.0868 -8.18339,0 -15.00234,3.773 -19.63959,10.7453 -3.58127,5.3357 -5.73814,12.5087 -5.72887,19.6276 -3.4e-4,0 3.3e-4,0 0,0 -0.8695,3.1148 -1.85886,5.971 -2.94996,8.4857 -2.18225,4.8007 -5.31987,9.6025 -8.86598,9.6025 -1.3639,0 -2.3172,-0.458 -3.27193,-1.3725 -5.18281,-5.3722 -3.81892,-23.3175 0,-38.2911 0.54555,-1.8288 -8.5e-4,-3.6574 -1.50113,-5.1434 -2.45502,-2.6289 -7.36548,-3.7708 -9.41132,-3.7708 -0.27277,0 -0.40892,0 -0.54532,0.1127 -0.13638,-0.1144 -0.27209,-0.1127 -0.40847,-0.1127 -3.40976,0 -6.95583,1.7138 -10.50196,5.0285 -0.68194,0.6859 -1.50133,1.3712 -2.18329,2.1714 -1.36389,1.3715 -2.31787,2.7429 -2.86343,3.4288 v 0.1146 c -3.54613,4.6865 -6.95604,10.7447 -9.95661,17.4885 -0.81835,1.9433 -1.63617,3.7713 -2.31813,5.6002 -0.68194,-15.888 1e-4,-37.1484 4.36458,-53.4938 12.95702,1.486 24.00486,1.4861 30.41518,-2.8573 3.54613,-2.5147 5.31839,-6.2852 5.31839,-11.2003 0,-3.772 -0.81739,-6.6298 -2.18129,-8.8015 -2.86417,-4.9151 -8.45633,-8.8016 -18.00362,-8.8016 z m -173.78812,0.7003 c -0.81834,-0.044 -1.80853,0.1006 -2.89966,0.6721 -6.68309,2.8575 -11.72843,9.9427 -15.13817,21.03 -12.13868,1.2573 -23.86841,1.6007 -32.87013,-1.5998 -0.1364,0 -0.40893,-0.1148 -0.54532,-0.1148 -0.13639,-0.1142 -0.27254,-0.1129 -0.54532,-0.2272 -1.09113,-0.4573 -2.45471,-9e-4 -3.00026,0.9135 -0.54557,0.9145 -4.9e-4,2.0582 1.09063,2.5152 0.27278,0.1144 0.40937,0.2274 0.68215,0.2274 0.1364,0.1144 0.27211,0.1152 0.4085,0.2295 9.54728,3.429 21.41315,4.0012 33.41544,3.6583 -0.40916,1.3716 -0.68102,2.9716 -0.95381,4.5719 -1.36389,7.4296 -2.18216,15.4307 -2.45493,23.2032 -0.95474,12.5733 -2.18381,36.8044 8.1818,46.1772 3.00058,2.6289 6.68437,4.0023 10.91244,4.0023 7.22867,0 12.27533,-6.6307 15.54868,-14.289 v -0.1146 c 0.32498,-0.7036 0.60211,-1.388 0.87332,-2.0646 2.4855,9.7827 9.87909,16.1241 19.68183,16.1241 5.18281,0 12.00295,-1.9421 16.91298,-10.1719 0.68196,-1.143 1.22723,-2.4005 1.77279,-3.5436 v -0.1148 c 0.27278,-0.6856 0.68305,-1.4857 0.95582,-2.2857 0.40916,-1.3718 0.8183,-2.6289 1.22747,-4.0005 1.36391,0.8002 3.00045,1.2577 4.90991,1.2577 6.13752,0 10.36415,-4.9154 12.54638,-14.6311 0.27277,-1.0288 -0.54529,-1.9447 -1.77279,-2.1733 -1.22751,-0.2285 -2.45382,0.4584 -2.72661,1.4872 -1.63666,7.5439 -4.50086,11.5443 -8.04698,11.5443 -1.63668,0 -3.00137,-0.9148 -3.9561,-1.8292 0.81834,-5.1436 0.81898,-9.1444 0.81898,-9.373 v -0.1128 -0.2293 -0.2295 c 0,0 -0.13683,0 -0.13683,-0.1128 0,-0.1142 -4.4e-4,-0.1146 -0.13683,-0.1146 v -0.2293 c -0.13638,0 -0.13682,-0.1147 -0.13682,-0.1147 l -0.27168,-0.2274 c -0.81832,-0.6859 -1.77298,-1.2583 -2.45493,-1.487 -0.27277,-2.2862 -0.81895,-5.371 -2.04646,-8.3428 -3.40975,-7.887 -9.4114,-9.4878 -13.77587,-9.4878 -8.047,0 -14.59296,3.771 -18.95743,10.7434 -1.67097,2.6887 -3.01037,5.8199 -3.92992,9.1718 -0.18258,0.2305 -0.32196,0.4919 -0.39642,0.7728 -1.22752,7.0866 -3.00133,13.4874 -5.18356,18.5167 -2.18223,4.8007 -5.31783,9.6025 -8.86397,9.6025 -0.95473,0 -1.773,-0.3425 -2.45496,-1.0284 -6.68308,-5.8293 -5.31973,-31.3198 -4.5014,-45.0362 0,-0.9143 4.4e-4,-1.8277 0.13683,-2.6279 0.68196,-8.5727 1.90935,-16.9174 3.68242,-24.0042 h 0.27166 c 13.2298,-0.8002 25.64125,-1.4868 33.41545,0.9135 0.54557,0.2286 1.22926,0.3441 1.7748,0.3441 1.50029,0 2.99891,-0.6868 3.81724,-2.0584 1.22751,-1.8288 0.9559,-4.5722 -1.49912,-5.8295 h -0.13684 c 0,-0.1144 -4.3e-4,-0.1127 -0.13682,-0.1127 h -0.13683 c -8.59256,-3.0862 -21.41132,-1.7146 -35.32308,0 1.5003,-3.7721 3.13527,-6.8596 5.04472,-9.1457 1.90945,-1.3716 1.90963,-4.1144 1.90963,-5.0286 0,-2.5147 -1.08993,-4.3433 -2.72659,-5.1434 -0.40919,-0.1714 -1.0571,-0.3998 -1.87543,-0.4426 z m 178.96968,6.0428 c 4.36447,0 7.36613,1.4865 9.00281,4.2297 1.22751,2.6289 1.49913,5.2586 1.49913,6.6303 0,3.772 -1.22584,6.5135 -3.81724,8.2282 -4.91003,3.429 -14.86755,3.3158 -26.32429,2.0585 2.18225,-7.0867 5.31962,-13.0307 9.41132,-16.917 3.00056,-2.7432 6.40935,-4.2297 10.22827,-4.2297 z m -55.23632,19.8889 c 5.3192,0.6859 10.63797,1.486 15.95716,2.286 1.77306,0.343 3.68215,0.5727 5.45521,0.9156 -3.27335,12.6876 -4.36457,27.7748 -4.36457,41.6054 v 0.3421 c -1.2275,7.0866 -3.13614,13.4874 -5.31838,18.5167 -2.18223,4.8007 -5.31941,9.6025 -8.72915,9.6025 -0.95473,0 -1.77344,-0.3425 -2.59179,-1.0284 -6.68309,-5.8293 -5.18335,-31.3198 -4.5014,-45.0362 0.1364,-0.9143 0.13683,-1.8277 0.13683,-2.6279 0.81835,-8.9156 2.04663,-17.4889 3.95609,-24.5758 z m -84.38982,30.52 c 2.7278,0 4.91076,1.9411 6.41104,5.8273 0.95473,2.1719 1.36318,4.5727 1.63596,6.5158 -2.31863,1.9431 -1.09133,6.1723 -0.68216,7.5439 0.54557,1.7146 1.36429,3.4304 2.59179,5.0307 -0.1364,1.2573 -0.40982,2.3989 -0.81899,3.6562 -0.13639,0.1143 -0.13684,0.2298 -0.13684,0.3441 -0.54555,1.7146 -1.09084,3.428 -1.77278,4.914 v 0.2293 c -0.40917,0.8001 -0.81673,1.6005 -1.3623,2.4007 -1.77306,3.0862 -4.50152,5.0286 -8.86599,5.0286 -2.72779,0 -5.04645,-1.2575 -6.81952,-3.5437 -2.31861,-2.9717 -3.54558,-7.3146 -3.54558,-12.5724 0,-6.744 1.3638,-13.3732 3.68242,-17.9453 1.77306,-3.4292 4.77293,-7.4292 9.68295,-7.4292 z m 198.08607,0.342 c 1.63669,0 2.86408,0.3421 3.68243,0.9136 0.27277,0.2286 0.54576,0.4576 0.68215,0.6862 0.40916,0.6858 0.54576,1.4858 0.68216,2.2859 v 0.2295 0.1146 c 0,9.1441 -10.77337,15.2007 -19.36592,17.6012 0.40918,-5.1436 1.90867,-10.1713 4.09091,-14.0577 1.50029,-2.8576 5.04547,-7.7733 10.22827,-7.7733 z"
         id="text903" />
      <g
         id="g965"
         transform="matrix(1.0270407,0,0,1.0270407,-14.198429,-39.427093)">
        <path
           id="path843"
           d="m 147.09507,1155.8988 c -2.45907,10.0731 -7.94345,35.2233 -9.4667,45.9898 -13.00382,91.9171 -0.26585,144.8221 42.48373,184.8654 28.2365,26.449 -0.92995,149.3821 -44.49854,159.6967 -33.05953,7.8265 117.58011,26.9718 92.68216,13.1122 -41.06845,-22.8613 -30.30335,-146.6654 3.19365,-166.1766 47.88066,-27.8894 76.72821,-76.57 89.32139,-165.582 1.52312,-10.7665 3.23051,-36.4511 3.66229,-46.811 z m 4.78979,7.2304 165.98067,23.4821 c -0.40451,9.7043 -2.0513,34.718 -3.478,44.8029 -12.55156,88.7179 -51.54716,160.7002 -109.09575,152.5583 -57.54845,-8.1419 -75.04473,-88.117 -62.49365,-176.8338 1.42684,-10.085 6.78334,-34.5738 9.08673,-44.0095 z"
           style="opacity:1;fill:#1a1a1a;fill-opacity:1;stroke:none;stroke-width:1.00624406;stroke-linecap:round;stroke-linejoin:round;stroke-miterlimit:4;stroke-dasharray:none;stroke-dashoffset:0;stroke-opacity:1;paint-order:stroke fill markers" />
        <path
           id="path856"
           d="m 296.67242,1196.8302 a 5.8715119,5.8715119 0 0 0 -6.63562,4.9908 5.8715119,5.8715119 0 0 0 4.99078,6.6356 5.8715119,5.8715119 0 0 0 6.63756,-4.9905 5.8715119,5.8715119 0 0 0 -4.99272,-6.6359 z m -22.09094,5.773 a 4.7982244,4.7982244 0 0 0 -5.42373,4.0793 4.7982244,4.7982244 0 0 0 4.07929,5.4237 4.7982244,4.7982244 0 0 0 5.42374,-4.0793 4.7982244,4.7982244 0 0 0 -4.0793,-5.4237 z m 23.19433,18.6221 a 5.8083773,5.8083773 0 0 0 -6.56499,4.9376 5.8083773,5.8083773 0 0 0 4.93765,6.565 5.8083773,5.8083773 0 0 0 6.56499,-4.9376 5.8083773,5.8083773 0 0 0 -4.93765,-6.565 z m -28.17929,2.4893 a 8.8388348,8.8388348 0 0 0 -9.99096,7.5144 8.8388348,8.8388348 0 0 0 7.51467,9.989 8.8388348,8.8388348 0 0 0 9.98876,-7.5127 8.8388348,8.8388348 0 0 0 -7.51247,-9.9907 z m 20.73781,20.5509 a 4.7982244,4.7982244 0 0 0 -5.42372,4.0793 4.7982244,4.7982244 0 0 0 4.07955,5.4218 4.7982244,4.7982244 0 0 0 5.42346,-4.0773 4.7982244,4.7982244 0 0 0 -4.07929,-5.4238 z m -92.76374,-10.0564 c -15.79364,-2.403 -32.87502,-1.1091 -53.36828,7.824 -4.99181,71.5925 13.47624,130.5735 61.73075,137.4004 48.94795,6.925 83.33694,-46.1665 98.06685,-117.9176 -43.94619,0.4615 -72.17306,-22.0945 -106.42932,-27.3068 z"
           style="fill:#c8ab37;fill-opacity:1;stroke:none;stroke-width:0.65766114px;stroke-linecap:butt;stroke-linejoin:miter;stroke-opacity:1" />
      </g>
      <g
         id="g969"
         transform="matrix(1.0270407,0,0,1.0270407,-14.198429,-39.427093)">
        <path
           style="opacity:1;fill:#1a1a1a;fill-opacity:1;stroke:none;stroke-width:1.00624406;stroke-linecap:round;stroke-linejoin:round;stroke-miterlimit:4;stroke-dasharray:none;stroke-dashoffset:0;stroke-opacity:1;paint-order:stroke fill markers"
           d="m 854.22538,1155.8988 c 2.45908,10.0731 7.94345,35.2233 9.46671,45.9898 13.00382,91.9171 0.26585,144.8221 -42.48374,184.8654 -28.23649,26.449 0.92996,149.3821 44.49854,159.6967 33.05954,7.8265 -117.5801,26.9718 -92.68215,13.1122 41.06845,-22.8613 30.30334,-146.6654 -3.19365,-166.1766 -47.88067,-27.8894 -76.72822,-76.57 -89.32139,-165.582 -1.52312,-10.7665 -3.23052,-36.4511 -3.66229,-46.811 z m -4.78978,7.2304 -165.98067,23.4821 c 0.40451,9.7043 2.0513,34.718 3.478,44.8029 12.55156,88.7179 51.54716,160.7002 109.09575,152.5583 57.54845,-8.1419 75.04472,-88.117 62.49365,-176.8338 -1.42684,-10.085 -6.78334,-34.5738 -9.08673,-44.0095 z"
           id="path936" />
        <path
           style="fill:#c8ab37;fill-opacity:1;stroke:none;stroke-width:0.65766114px;stroke-linecap:butt;stroke-linejoin:miter;stroke-opacity:1"
           d="m 704.64803,1196.8302 a 5.8715119,5.8715119 0 0 1 6.63563,4.9908 5.8715119,5.8715119 0 0 1 -4.99078,6.6356 5.8715119,5.8715119 0 0 1 -6.63757,-4.9905 5.8715119,5.8715119 0 0 1 4.99272,-6.6359 z m 22.09094,5.773 a 4.7982244,4.7982244 0 0 1 5.42374,4.0793 4.7982244,4.7982244 0 0 1 -4.0793,5.4237 4.7982244,4.7982244 0 0 1 -5.42373,-4.0793 4.7982244,4.7982244 0 0 1 4.07929,-5.4237 z m -23.19432,18.6221 a 5.8083773,5.8083773 0 0 1 6.56498,4.9376 5.8083773,5.8083773 0 0 1 -4.93765,6.565 5.8083773,5.8083773 0 0 1 -6.56498,-4.9376 5.8083773,5.8083773 0 0 1 4.93765,-6.565 z m 28.17928,2.4893 a 8.8388348,8.8388348 0 0 1 9.99097,7.5144 8.8388348,8.8388348 0 0 1 -7.51467,9.989 8.8388348,8.8388348 0 0 1 -9.98876,-7.5127 8.8388348,8.8388348 0 0 1 7.51246,-9.9907 z m -20.7378,20.5509 a 4.7982244,4.7982244 0 0 1 5.42372,4.0793 4.7982244,4.7982244 0 0 1 -4.07956,5.4218 4.7982244,4.7982244 0 0 1 -5.42346,-4.0773 4.7982244,4.7982244 0 0 1 4.0793,-5.4238 z m 92.76374,-10.0564 c 15.79363,-2.403 32.87502,-1.1091 53.36827,7.824 4.99181,71.5925 -13.47624,130.5735 -61.73074,137.4004 -48.94796,6.925 -83.33695,-46.1665 -98.06685,-117.9176 43.94618,0.4615 72.17306,-22.0945 106.42932,-27.3068 z"
           id="path938" />
      </g>
    </g>
  </g>
</svg>
