<?xml version="1.0" encoding="UTF-8" standalone="no"?>
<svg
   xmlns:dc="http://purl.org/dc/elements/1.1/"
   xmlns:cc="http://creativecommons.org/ns#"
   xmlns:rdf="http://www.w3.org/1999/02/22-rdf-syntax-ns#"
   xmlns:svg="http://www.w3.org/2000/svg"
   xmlns="http://www.w3.org/2000/svg"
   id="svg8"
   version="1.1"
   viewBox="0 0 1000 1000"
   height="1000"
   width="1000">
  <defs
     id="defs2" />
  <metadata
     id="metadata5">
    <rdf:RDF>
      <cc:Work
         rdf:about="">
        <dc:format>image/svg+xml</dc:format>
        <dc:type
           rdf:resource="http://purl.org/dc/dcmitype/StillImage" />
        <dc:title></dc:title>
      </cc:Work>
    </rdf:RDF>
  </metadata>
  <g
     transform="translate(0,-122.51965)"
     id="layer1">
    <g
       transform="translate(6.1161279e-7,2.303939e-5)"
       id="g936">
      <path
         style="fill:#00aa00;fill-opacity:1;stroke:none;stroke-width:1.54670727px;stroke-linecap:butt;stroke-linejoin:miter;stroke-opacity:1"
         d="m 444.41907,145.92532 c -6.27279,0.005 -12.53827,0.54581 -18.6897,1.72193 -24.60581,4.70447 -47.40583,19.59045 -62.35571,40.18231 -14.95003,20.59185 -22.05121,46.89321 -19.37233,78.1393 2.67907,31.24609 15.13947,67.43776 39.14298,110.25508 24.00353,42.81742 59.5457,92.25553 78.71328,120.34413 19.16746,28.08859 21.95772,34.82393 16.99492,31.03664 -4.96272,-3.7873 -17.67031,-18.09178 -43.17895,-51.20565 -25.50867,-33.1138 -63.82403,-85.04424 -97.97155,-119.67417 -34.14735,-34.62992 -64.13331,-51.9666 -94.10213,-55.73411 -29.96878,-3.76745 -59.92527,6.03283 -80.78287,21.21919 -20.85762,15.18633 -32.62041,35.76147 -34.84446,62.40823 -2.22395,26.64676 5.08987,59.36684 8.7075,79.72906 3.61768,20.36224 3.53942,28.36589 -5.01373,41.73405 -8.55316,13.36811 -25.57486,32.09487 -35.664707,49.84583 -10.08968,17.75095 -13.246497,34.52487 -11.946776,54.14979 1.299814,19.62492 7.056021,42.09902 26.040993,60.12317 18.98514,18.02408 51.19602,31.5948 83.09511,33.53897 31.89889,1.94412 63.47802,-7.73809 99.77495,-23.95149 36.29702,-16.21343 77.3064,-38.9562 109.58877,-57.33475 32.28235,-18.37857 55.83482,-32.3921 64.81279,-36.8199 8.97818,-4.42778 3.38136,0.73109 -20.03683,16.30686 -23.41817,15.57576 -64.66383,41.57253 -99.53413,66.46776 -34.87033,24.89522 -63.36997,48.69181 -85.8455,76.26706 -22.47559,27.57517 -38.92818,58.93264 -45.08378,86.85223 -6.15577,27.91978 -2.01512,52.40428 11.65527,70.45845 13.67023,18.05434 36.86885,29.6755 61.7238,35.28627 24.85474,5.61075 51.36039,5.20953 71.0958,1.22039 19.73561,-3.98905 32.69492,-11.56591 46.14664,-9.95504 13.45169,1.61068 27.39365,12.41 40.15152,23.77947 12.75793,11.36948 24.32901,23.30721 43.68414,29.26218 19.35491,5.95507 46.48519,5.92472 71.58107,-1.03388 25.09569,-6.95816 48.14826,-20.84429 60.82752,-45.11457 12.67925,-24.27021 14.98397,-58.91905 7.84923,-93.01574 -7.13486,-34.09671 -23.70882,-67.64059 -41.3556,-103.30213 -15.29504,-30.90864 -31.38338,-63.39268 -38.85691,-85.00353 37.19004,50.22415 117.10869,163.42948 147.4679,247.81321 40.14196,111.57498 37.77017,136.08598 18.32938,141.48178 -19.44081,5.3959 -18.64871,27.3012 -16.74142,37.6727 1.90727,10.3716 7.99955,22.6029 33.34703,16.3231 25.3475,-6.2797 51.62519,-37.2095 32.22806,-107.4846 -17.27983,-62.60439 -103.91828,-243.94421 -179.48049,-343.84555 2.16406,2.23828 4.13018,4.26762 6.65421,6.87147 17.36067,17.90982 43.89393,44.63915 72.16772,68.79989 28.27398,24.1608 58.28231,45.7464 90.04986,57.57014 31.76757,11.82381 65.28827,13.8833 90.00641,6.48942 24.71833,-7.39397 40.62796,-24.23983 51.01371,-44.99505 10.38582,-20.75513 15.24561,-45.41657 12.11516,-68.03217 -3.13063,-22.61565 -14.25084,-43.18548 -21.71168,-57.77293 -7.46061,-14.58736 -11.26153,-23.19448 -6.14904,-36.47586 5.11265,-13.2814 19.14297,-31.24632 27.57645,-54.42863 8.43354,-23.1824 11.27165,-51.58454 3.13427,-75.04668 -8.13723,-23.4622 -27.24983,-41.98483 -48.63087,-52.7411 -21.38094,-10.75625 -45.03347,-13.7486 -68.71659,-11.67517 -23.68314,2.07341 -47.40435,9.21262 -73.63982,24.17964 -26.23559,14.96701 -54.99244,37.76497 -81.01281,57.7331 -26.02051,19.96805 -49.30558,37.10778 -67.42922,49.46559 -18.12365,12.35785 -31.08673,19.93475 0.0199,-7.19016 31.10701,-27.12498 106.28225,-88.95099 145.81656,-140.32121 39.53445,-51.37021 43.42837,-92.28169 35.74799,-123.3118 -7.68026,-31.03017 -26.93423,-52.17847 -56.81146,-61.82338 -29.87722,-9.6449 -70.38343,-7.78902 -96.12284,-4.39087 -25.73946,3.39813 -36.7172,8.33752 -50.49405,4.41441 -13.77685,-3.9231 -30.35749,-16.71005 -51.85385,-25.84002 -16.1222,-6.84748 -35.01272,-11.63903 -53.83111,-11.62266 z"
         id="path952" />
      <path
         style="fill:#00d400;fill-opacity:1;stroke:none;stroke-width:1px;stroke-linecap:butt;stroke-linejoin:miter;stroke-opacity:1"
         d="M 413.21583,520.3734 C 392.59151,489.80632 346.55592,437.1416 310.46443,407.86308 274.37294,378.58457 248.22468,372.692 229.81038,376.00612 c -18.4143,3.31412 -29.09425,15.83545 -32.40916,36.09243 -3.31491,20.25698 0.73587,48.24422 0.736,71.44627 1.3e-4,23.20206 -4.05088,41.61575 -14.91545,59.1099 -10.86458,17.49415 -28.54113,34.06592 -31.67182,51.56033 -3.13069,17.49441 8.28548,35.90758 38.11755,41.61599 29.83207,5.70842 78.07666,-1.28889 120.24488,-14.7313 42.16822,-13.44241 78.26097,-33.33025 98.70044,-47.50934 20.43946,-14.17908 25.22733,-22.64991 4.60301,-53.217 z"
         id="path870" />
      <path
         style="fill:#00d400;fill-opacity:1;stroke:none;stroke-width:1px;stroke-linecap:butt;stroke-linejoin:miter;stroke-opacity:1"
         d="m 492.39721,470.10296 c -20.99286,-27.43731 -54.50678,-83.04831 -72.18438,-128.34757 -17.6776,-45.29926 -19.51904,-80.2865 -10.86397,-102.01499 8.65506,-21.72848 27.80638,-30.19926 49.16573,-27.98959 21.35935,2.20966 44.93106,15.10044 66.10749,23.57095 21.17644,8.47051 39.95924,12.5217 62.05604,10.49602 22.09681,-2.02568 47.50947,-10.12827 67.21182,-8.28689 19.70236,1.84138 33.69784,13.62705 36.46014,33.88198 2.76229,20.25493 -5.70832,48.98133 -26.88507,80.47048 -21.17676,31.48916 -55.05756,65.73822 -79.36457,90.22938 -24.307,24.49116 -39.03796,39.22211 -50.63918,46.95657 -11.60122,7.73446 -20.07119,8.47098 -41.06405,-18.96634 z"
         id="path874" />
      <path
         style="fill:#00d400;fill-opacity:1;stroke:none;stroke-width:1px;stroke-linecap:butt;stroke-linejoin:miter;stroke-opacity:1"
         d="m 586.67813,550.94097 c 18.78319,-21.36062 60.76766,-50.8234 99.25298,-71.99942 38.48531,-21.17603 73.47331,-34.06634 100.54153,-36.09174 27.06822,-2.02539 46.21969,6.81375 55.97901,24.12224 9.75931,17.30848 10.12761,43.08902 5.89248,64.63391 -4.23513,21.54488 -13.07363,38.8536 -15.09942,58.18952 -2.02579,19.33592 2.76158,40.69496 7.54936,61.50341 4.78778,20.80845 9.57532,41.06341 0.92092,55.24266 -8.6544,14.17925 -30.7507,22.28122 -61.31979,16.75675 -30.5691,-5.52447 -69.60516,-24.67423 -104.96083,-47.69223 -35.35566,-23.01801 -67.02782,-49.90252 -85.07393,-69.97439 -18.0461,-20.07188 -22.4655,-33.33009 -3.68231,-54.69071 z"
         id="path878" />
      <path
         style="fill:#00d400;fill-opacity:1;stroke:none;stroke-width:1px;stroke-linecap:butt;stroke-linejoin:miter;stroke-opacity:1"
         d="m 479.87554,645.59017 c -23.20126,-0.36839 -60.39802,25.04326 -94.4649,51.74426 -34.06687,26.701 -65.00183,54.68978 -83.60069,80.83829 -18.59886,26.14852 -24.85949,50.45449 -18.96643,66.84406 5.89305,16.38957 23.93814,24.85971 48.2449,27.06929 24.30677,2.20959 54.87514,-1.84164 78.2605,1.47288 23.38535,3.31452 39.59047,13.99517 58.37283,26.3326 18.78237,12.33744 40.1432,26.33247 59.11022,27.06861 18.96701,0.73614 35.54001,-11.78568 42.35277,-32.40869 6.81277,-20.623 3.86629,-49.35115 -5.70892,-83.41669 -9.57522,-34.06554 -25.78025,-73.47323 -38.48601,-106.25044 -12.70576,-32.77722 -21.913,-58.92578 -45.11427,-59.29417 z"
         id="path882" />
      <path
         style="fill:#aaffaa;fill-opacity:1;stroke:none;stroke-width:1px;stroke-linecap:butt;stroke-linejoin:miter;stroke-opacity:1"
         d="m 508.49023,234.06055 c -0.39436,-0.0139 -0.78997,9.7e-4 -1.18554,0.043 -4.74685,0.50395 -9.56566,4.89065 -14.22071,9.87695 -6.20673,6.64839 -12.12176,14.3658 -20.27734,13.14844 -8.15557,-1.21734 -18.55174,-11.37124 -26.74023,-9.90821 -3.68403,0.65823 -6.91768,3.67973 -9.74024,7.97071 4.99311,10.03889 10.36271,20.07736 15.84961,29.81054 3.2875,1.78191 6.49393,3.3652 9.41211,3.80078 8.15558,1.21736 14.07452,-6.49808 20.28125,-13.14648 6.20674,-6.6484 12.70529,-12.23139 18.93555,-8.96484 6.23024,3.26656 12.19652,15.38498 19.04297,18.10351 6.84646,2.71852 14.57048,-3.96121 21.46679,-5.26367 6.89631,-1.30245 12.96742,2.77353 15.56055,11.60937 2.59313,8.83585 1.70998,22.43456 6.82617,27.91407 3.72812,3.99288 10.64729,3.66632 18.0918,2.85937 0.78667,-0.79224 1.49906,-1.50662 2.30664,-2.32031 8.85223,-8.9193 18.9792,-19.14187 29.29492,-30.04492 -3.51879,-0.63046 -7.67623,-0.58139 -11.99414,-0.21094 -10.25561,0.87986 -21.36819,3.52054 -26.48437,-1.95898 -5.11617,-5.4795 -4.23305,-19.07824 -6.82618,-27.91407 -2.59314,-8.83584 -8.66228,-12.90986 -15.55859,-11.60742 -6.89632,1.30246 -14.62034,7.98219 -21.4668,5.26367 -6.84646,-2.71852 -12.81467,-14.83891 -19.04492,-18.10547 -1.16817,-0.61248 -2.34619,-0.91335 -3.5293,-0.95507 z"
         transform="translate(0,122.51965)"
         id="path886" />
      <path
         style="fill:#aaffaa;fill-opacity:1;stroke:none;stroke-width:1px;stroke-linecap:butt;stroke-linejoin:miter;stroke-opacity:1"
         d="m 672.0332,364.34375 c -12.42266,7.31254 -24.87342,15.26337 -36.49218,23.33203 -1.06436,8.05356 6.56765,13.92762 13.1621,20.08399 6.64841,6.20674 12.2314,12.70528 8.96485,18.93554 -3.26656,6.23024 -15.38499,12.19652 -18.10352,19.04297 -2.71852,6.84646 3.96121,14.57244 5.26367,21.46875 1.30246,6.89631 -2.77353,12.96546 -11.60937,15.55859 -8.83584,2.59313 -22.43455,1.70999 -27.91406,6.82618 -1.60983,1.50308 -2.50407,3.53398 -2.96289,5.89843 9.12693,8.87031 20.11308,18.48576 32.3125,28.1836 -1.02105,-9.15259 -2.5117,-18.34829 2.32812,-22.86719 5.4795,-5.11617 19.07628,-4.23109 27.91211,-6.82422 8.83584,-2.59314 12.90986,-8.66423 11.60742,-15.56054 -1.30246,-6.89632 -7.98219,-14.62034 -5.26367,-21.4668 2.71852,-6.84646 14.83892,-12.81467 18.10547,-19.04492 0.81665,-1.55756 1.08009,-3.1306 0.91211,-4.71289 -0.50395,-4.74685 -4.89065,-9.56761 -9.87695,-14.22266 -6.64839,-6.20673 -14.3658,-12.12176 -13.14844,-20.27734 1.21734,-8.15557 11.37123,-18.5498 9.9082,-26.73829 -0.49886,-2.79208 -2.37121,-5.32212 -5.10547,-7.61523 z"
         transform="translate(0,122.51965)"
         id="path896" />
      <path
         style="fill:#aaffaa;fill-opacity:1;stroke:none;stroke-width:1px;stroke-linecap:butt;stroke-linejoin:miter;stroke-opacity:1"
         d="m 435.4668,539.54688 c -14.584,8.65999 -30.16787,19.87878 -45.3125,31.58593 3.06467,0.32431 6.49642,0.23949 10.03906,-0.0644 10.25561,-0.87986 21.36819,-3.51858 26.48437,1.96094 5.11617,5.4795 4.23109,19.07628 6.82422,27.91211 2.59314,8.83584 8.66424,12.90986 15.56055,11.60742 6.89632,-1.30246 14.62034,-7.98024 21.4668,-5.26172 6.84646,2.71852 12.81467,14.83697 19.04492,18.10351 1.55756,0.81665 3.1306,1.08009 4.71289,0.91211 4.74685,-0.50395 9.56761,-4.8887 14.22266,-9.875 6.20673,-6.64839 12.12176,-14.36579 20.27734,-13.14843 1.59297,0.23777 3.27322,0.8234 5.00391,1.58984 -3.01801,-7.70437 -6.01274,-15.31156 -8.80079,-22.50391 -0.31093,-0.80212 -0.6012,-1.54399 -0.9082,-2.33789 -1.45792,1.54892 -2.90039,3.16194 -4.35742,4.72266 -6.20674,6.6484 -12.70529,12.23335 -18.93555,8.9668 -6.23024,-3.26656 -12.19652,-15.38694 -19.04297,-18.10547 -6.84646,-2.71852 -14.57244,3.96121 -21.46875,5.26367 -6.89631,1.30245 -12.96546,-2.77158 -15.55859,-11.60742 -2.59313,-8.83584 -1.70998,-22.43455 -6.82617,-27.91406 -0.69967,-0.74936 -1.51934,-1.3357 -2.42578,-1.80664 z"
         transform="translate(0,122.51965)"
         id="path898" />
      <path
         style="fill:#aaffaa;fill-opacity:1;stroke:none;stroke-width:1px;stroke-linecap:butt;stroke-linejoin:miter;stroke-opacity:1"
         d="m 362.42383,335.4043 c 0.0436,1.29636 0.12719,2.62052 0.24219,3.96093 0.87986,10.25561 3.51858,21.3682 -1.96094,26.48438 -5.4795,5.11617 -19.07628,4.23304 -27.91211,6.82617 -8.83584,2.59314 -12.90986,8.66229 -11.60742,15.5586 1.30246,6.89631 7.98024,14.62033 5.26172,21.46679 -2.71852,6.84646 -14.83697,12.81467 -18.10352,19.04492 -0.81665,1.55756 -1.08009,3.13256 -0.91211,4.71485 0.50395,4.74685 4.89065,9.56565 9.87695,14.2207 6.64839,6.20673 14.36385,12.12372 13.14649,20.2793 -1.21734,8.15557 -11.36928,18.54979 -9.90625,26.73828 0.0163,0.0914 0.0413,0.18061 0.0605,0.27148 14.95097,-5.26556 28.98557,-11.23419 41.64453,-17.3457 0.0983,-7.36824 -7.0506,-12.92272 -13.26953,-18.72852 -6.6484,-6.20674 -12.23335,-12.70333 -8.9668,-18.93359 3.26656,-6.23024 15.38694,-12.19847 18.10547,-19.04492 2.71852,-6.84646 -3.96122,-14.57049 -5.26367,-21.4668 -1.30246,-6.89631 2.77158,-12.96741 11.60742,-15.56055 8.83584,-2.59312 22.43455,-1.70998 27.91406,-6.82617 1.14345,-1.06762 1.91722,-2.40794 2.44336,-3.93554 -9.51372,-11.94134 -20.65189,-24.95106 -32.40039,-37.72461 z"
         transform="translate(0,122.51965)"
         id="path900" />
    </g>
  </g>
</svg>
